<svg width="80" height="64" viewBox="0 0 80 64" fill="none" xmlns="http://www.w3.org/2000/svg">
<path d="M22.3822 22.5735L10.7068 32.3189L22.3822 42.0642C22.777 42.3801 23.1047 42.7717 23.3462 43.216C23.5876 43.6603 23.7378 44.1483 23.7881 44.6515C23.8384 45.1546 23.7876 45.6628 23.6388 46.146C23.49 46.6293 23.2462 47.078 22.9217 47.4658C22.5971 47.8535 22.1984 48.1726 21.7489 48.4041C21.2994 48.6357 20.8081 48.7752 20.304 48.8143C19.7999 48.8535 19.293 48.7915 18.8131 48.6321C18.3332 48.4727 17.89 48.2191 17.5095 47.886L2.322 35.2298C1.89646 34.8734 1.55423 34.4281 1.31941 33.9252C1.08459 33.4222 0.962891 32.8739 0.962891 32.3189C0.962891 31.7638 1.08459 31.2155 1.31941 30.7126C1.55423 30.2096 1.89646 29.7643 2.322 29.4079L17.5095 16.7517C18.2845 16.1316 19.2714 15.8396 20.259 15.9383C21.2466 16.0369 22.1563 16.5183 22.7933 17.2794C23.4303 18.0405 23.744 19.0208 23.6671 20.0103C23.5903 20.9998 23.129 21.9199 22.3822 22.5735ZM78.0697 29.4079L62.8822 16.7517C62.1072 16.1316 61.1203 15.8396 60.1327 15.9383C59.1451 16.0369 58.2354 16.5183 57.5984 17.2794C56.9614 18.0405 56.6477 19.0208 56.7245 20.0103C56.8014 20.9998 57.2626 21.9199 58.0095 22.5735L69.7165 32.3189L58.0095 42.0642C57.6237 42.3817 57.305 42.7728 57.0719 43.2148C56.8388 43.6567 56.6961 44.1407 56.6519 44.6384C56.6077 45.1361 56.663 45.6376 56.8146 46.1137C56.9662 46.5898 57.2111 47.0309 57.5349 47.4114C57.8939 47.834 58.3398 48.1742 58.8421 48.409C59.3444 48.6438 59.8914 48.7676 60.4458 48.772C61.3367 48.7716 62.1991 48.458 62.8822 47.886L78.0697 35.2298C78.4952 34.8734 78.8374 34.4281 79.0723 33.9252C79.3071 33.4222 79.4288 32.8739 79.4288 32.3189C79.4288 31.7638 79.3071 31.2155 79.0723 30.7126C78.8374 30.2096 78.4952 29.7643 78.0697 29.4079ZM51.6181 0.899722C50.6695 0.562531 49.6263 0.61254 48.7143 1.03892C47.8023 1.4653 47.095 2.23374 46.7454 3.17785L26.4954 58.8653C26.1582 59.8139 26.2083 60.8572 26.6346 61.7691C27.061 62.6811 27.8295 63.3885 28.7736 63.738C29.1895 63.8881 29.6287 63.963 30.0708 63.9595C30.8515 63.9609 31.6136 63.7217 32.2533 63.2744C32.8931 62.8271 33.3795 62.1935 33.6462 61.4599L53.8962 5.77238C54.2334 4.82379 54.1834 3.78056 53.757 2.86858C53.3306 1.9566 52.5622 1.24926 51.6181 0.899722Z" fill="#FBE7B5"/>
<path d="M51.6172 0.899722C50.6686 0.562531 49.6254 0.61254 48.7134 1.03892C47.8014 1.4653 47.0941 2.23374 46.7446 3.17785L26.4946 58.8653C26.1574 59.8139 26.2074 60.8572 26.6338 61.7691C27.0602 62.6811 27.8286 63.3885 28.7727 63.738C29.1886 63.8881 29.6278 63.963 30.07 63.9595C30.8506 63.9609 31.6127 63.7217 32.2525 63.2744C32.8923 62.8271 33.3786 62.1935 33.6454 61.4599L53.8954 5.77238C54.2325 4.82379 54.1825 3.78056 53.7562 2.86858C53.3298 1.9566 52.5613 1.24926 51.6172 0.899722Z" fill="#FFCD45"/>
</svg>
