<svg width="401" height="262" viewBox="0 0 401 262" fill="none" xmlns="http://www.w3.org/2000/svg">
<path d="M105.164 19.6226L23.6527 101.134C21.1791 103.608 19.9422 104.844 19.6474 106.326C19.5198 106.968 19.5198 107.629 19.6474 108.27C19.9422 109.752 21.1791 110.989 23.6527 113.463L105.164 194.974" stroke="url(#paint0_linear_438_2441)" stroke-width="37.86" stroke-linecap="round"/>
<path d="M296.457 242.294L377.968 160.783C380.442 158.309 381.679 157.072 381.974 155.59C382.101 154.948 382.101 154.288 381.974 153.646C381.679 152.164 380.442 150.927 377.968 148.454L296.457 66.9424" stroke="url(#paint1_linear_438_2441)" stroke-width="37.86" stroke-linecap="round"/>
<circle cx="156.474" cy="130.209" r="30.3876" fill="url(#paint2_linear_438_2441)"/>
<rect x="156.752" y="175.429" width="181.953" height="48.1453" rx="24.0726" transform="rotate(-44.227 156.752 175.429)" fill="url(#paint3_linear_438_2441)"/>
<defs>
<linearGradient id="paint0_linear_438_2441" x1="61.3262" y1="19.6226" x2="61.3262" y2="194.974" gradientUnits="userSpaceOnUse">
<stop stop-color="#5339CA"/>
<stop offset="1" stop-opacity="0"/>
</linearGradient>
<linearGradient id="paint1_linear_438_2441" x1="340.295" y1="242.294" x2="340.295" y2="66.9424" gradientUnits="userSpaceOnUse">
<stop stop-color="#54CFC8"/>
<stop offset="1" stop-opacity="0"/>
</linearGradient>
<linearGradient id="paint2_linear_438_2441" x1="130.071" y1="107.792" x2="174.905" y2="151.132" gradientUnits="userSpaceOnUse">
<stop stop-color="#FFCD45"/>
<stop offset="1" stop-color="#5339CA"/>
</linearGradient>
<linearGradient id="paint3_linear_438_2441" x1="170.738" y1="211.67" x2="338.326" y2="207.664" gradientUnits="userSpaceOnUse">
<stop stop-color="#5339CA"/>
<stop offset="1" stop-color="#FFCD45"/>
</linearGradient>
</defs>
</svg>
